# xmcd
#
# Track frame offsets: 
#        151
#        22174
#        45701
#        73498
#        95707
#        122804
#        154128
#        178326
#        208170
#
# Disc length: 3252 seconds
#
# Revision: 0
# Processed by: cddbd v1.5.1PL0 Copyright (c) Steve Scherf et al.
# Submitted via: ExactAudioCopy v0.95a5
#
DISCID=8f0cb209
DTITLE=Неизвестный исполнитель - Mata
DYEAR=2004
DGENRE=Cult
TTITLE0=Jaya Jaya Jaya
TTITLE1=Neevu Talli
TTITLE2=Sulabham Subhagam
TTITLE3=Vande Vistruta Lochanam
TTITLE4=Madhura Madhura
TTITLE5=Dola Dola Himagiri Bale
TTITLE6=Chandi Chandasura
TTITLE7=Vande Vande Vaanim
TTITLE8=Navaraatrishu Tam
EXTD=
EXTT0=
EXTT1=
EXTT2=
EXTT3=
EXTT4=
EXTT5=
EXTT6=
EXTT7=
EXTT8=
PLAYORDER=
